<?xml version="1.0"?><svg id="uuid-78805916-13b1-4b2e-97f3-5954ad7e2003" xmlns="http://www.w3.org/2000/svg" viewBox="0 0 364.11 252.5" xmlns:c2pa="http://c2pa.org/manifest"><metadata><c2pa:manifest>AAAWgmp1bWIAAAAeanVtZGMycGEAEQAQgAAAqgA4m3EDYzJwYQAAABZcanVtYgAAAEdqdW1kYzJtYQARABCAAACqADibcQN1cm46YzJwYTo4MTJjMTFiNy05Yjk3LTQzMzItOWMzOS02ZTNlMDkxMjdlNzYAAAADl2p1bWIAAAApanVtZGMyYXMAEQAQgAAAqgA4m3EDYzJwYS5hc3NlcnRpb25zAAAAALxqdW1iAAAARGp1bWRjYm9yABEAEIAAAKoAOJtxE2MycGEuaW5ncmVkaWVudC52MwAAAAAYYzJzaHy1REUYBsIeg4nkiEaOawAAAABwY2JvcqNpZGM6Zm9ybWF0bWltYWdlL3N2Zyt4bWxqaW5zdGFuY2VJRHgseG1wOmlpZDo1MWZhODk1Yi00NTVkLTQ3ODktYWQwNC1lMTgyZjJmYzFjZjhscmVsYXRpb25zaGlwaHBhcmVudE9mAAAB4mp1bWIAAABBanVtZGNib3IAEQAQgAAAqgA4m3ETYzJwYS5hY3Rpb25zLnYyAAAAABhjMnNopKIodPXywG3XSFUQxUPhOwAAAZljYm9yomdhY3Rpb25zgqJmYWN0aW9ua2MycGEub3BlbmVkanBhcmFtZXRlcnOha2luZ3JlZGllbnRzgaJjdXJseC1zZWxmI2p1bWJmPWMycGEuYXNzZXJ0aW9ucy9jMnBhLmluZ3JlZGllbnQudjNkaGFzaFggSYlEhycY60/kEpOY3D+gi8fvLfwEzO8x5xkvTUVXhVOkZmFjdGlvbngdY29tLmFudGhyb3BpYy5jbGF1ZGUucHJvdmlkZWRqcGFyYW1ldGVyc6F4H2NvbS5hbnRocm9waWMub3JpZ2luLWNvbmZpZGVuY2VndW5rbm93bmtkZXNjcmlwdGlvbnhmQ2xhdWRlIHByb3ZpZGVkIHRoaXMgZmlsZSBhdCB0aGUgcmVxdWVzdCBvZiBhIHVzZXIgYW5kIG1heSBoYXZlIGNyZWF0ZWQgb3IgbW9kaWZpZWQgdGhlIGZpbGUgY29udGVudHMubXNvZnR3YXJlQWdlbnShZG5hbWVmQ2xhdWRlcmFsbEFjdGlvbnNJbmNsdWRlZPUAAADIanVtYgAAAEBqdW1kY2JvcgARABCAAACqADibcRNjMnBhLmhhc2guZGF0YQAAAAAYYzJzaDzhVzI5L9FHwsbwcSA8DE8AAACAY2JvcqVjYWxnZnNoYTI1NmNwYWRNAAAAAAAAAAAAAAAAAGRoYXNoWCAr90Podjij6FBvRGfmxGd+R34y29kWfU0L6MKcGVRQW2RuYW1lbmp1bWJmIG1hbmlmZXN0amV4Y2x1c2lvbnOBomVzdGFydBjGZmxlbmd0aBkeBAAAAj5qdW1iAAAAJ2p1bWRjMmNsABEAEIAAAKoAOJtxA2MycGEuY2xhaW0udjIAAAACD2Nib3KlY2FsZ2ZzaGEyNTZpc2lnbmF0dXJleE1zZWxmI2p1bWJmPS9jMnBhL3VybjpjMnBhOjgxMmMxMWI3LTliOTctNDMzMi05YzM5LTZlM2UwOTEyN2U3Ni9jMnBhLnNpZ25hdHVyZWppbnN0YW5jZUlEeCx4bXA6aWlkOjMwNzU1NmNkLTJiOTktNDc0NS1iZDEyLWUwYTMxODQ5YTNlN3JjcmVhdGVkX2Fzc2VydGlvbnODomN1cmx4LXNlbGYjanVtYmY9YzJwYS5hc3NlcnRpb25zL2MycGEuaW5ncmVkaWVudC52M2RoYXNoWCBJiUSHJxjrT+QSk5jcP6CLx+8t/ATM7zHnGS9NRVeFU6JjdXJseCpzZWxmI2p1bWJmPWMycGEuYXNzZXJ0aW9ucy9jMnBhLmFjdGlvbnMudjJkaGFzaFgggirPX/inAkAQnLC1b9hVGQNDFko2h3eNUPPSm0KPHVuiY3VybHgpc2VsZiNqdW1iZj1jMnBhLmFzc2VydGlvbnMvYzJwYS5oYXNoLmRhdGFkaGFzaFgg5uWrtymVh7dmuAuhlk/rG8T5OJw4Y/21MdHjwfxfNxF0Y2xhaW1fZ2VuZXJhdG9yX2luZm+jZG5hbWVvQW50aHJvcGljIEZpbGVzZ3ZlcnNpb25lMS4wLjBrc3BlY1ZlcnNpb25lMi40LjAAABA4anVtYgAAAChqdW1kYzJjcwARABCAAACqADibcQNjMnBhLnNpZ25hdHVyZQAAABAIY2JvctKEWQISogEmGCFZAgowggIGMIIBjaADAgECAhRA5aAK7sI50L64g/oGQgU9Z1UTADAKBggqhkjOPQQDAzBJMRcwFQYDVQQKEw5BbnRocm9waWMsIFBCQzEuMCwGA1UEAxMlQW50aHJvcGljIENvbnRlbnQgQ3JlZGVudGlhbHMgUm9vdCBDQTAeFw0yNjA4MDcxODQzNTZaFw0yODA4MDYxOTQzNTZaMEQxFzAVBgNVBAoTDkFudGhyb3BpYywgUEJDMSkwJwYDVQQDEyBBbnRocm9waWMgQ2xhdWRlIENvbnRlbnQgU2lnbmluZzBZMBMGByqGSM49AgEGCCqGSM49AwEHA0IABJh6CmvLUBgFFNU0vUKlOVtE6djd17L5SuwX0LemFisBM3dkd/3cyjxFA3Qo5S46fX0/ihY0VZ7mfb9KF703t5OjWDBWMA4GA1UdDwEB/wQEAwIHgDAVBgNVHSUEDjAMBgorBgEEAYPoXgIBMAwGA1UdEwEB/wQCMAAwHwYDVR0jBBgwFoAUzlHiBIFOZFsj+OPEz5o+nMHXXMIwCgYIKoZIzj0EAwMDZwAwZAIwMXMdFJ4BetLLVY7ORuE9noqbbAZOZn/aArXyTwFAZfKrPzxF2vPoJNf1+UCdg1XGAjBwX1zd9WGqYkqmL5SFqw1QySjr1zJfpJM9+1rdDwSPLMOPOjKuiXjoU/pUUeG9RwmhY3BhZFkNngAAAAAAAAAAAAAAAAAAAAAAAAAAAAAAAAAAAAAAAAAAAAAAAAAAAAAAAAAAAAAAAAAAAAAAAAAAAAAAAAAAAAAAAAAAAAAAAAAAAAAAAAAAAAAAAAAAAAAAAAAAAAAAAAAAAAAAAAAAAAAAAAAAAAAAAAAAAAAAAAAAAAAAAAAAAAAAAAAAAAAAAAAAAAAAAAAAAAAAAAAAAAAAAAAAAAAAAAAAAAAAAAAAAAAAAAAAAAAAAAAAAAAAAAAAAAAAAAAAAAAAAAAAAAAAAAAAAAAAAAAAAAAAAAAAAAAAAAAAAAAAAAAAAAAAAAAAAAAAAAAAAAAAAAAAAAAAAAAAAAAAAAAAAAAAAAAAAAAAAAAAAAAAAAAAAAAAAAAAAAAAAAAAAAAAAAAAAAAAAAAAAAAAAAAAAAAAAAAAAAAAAAAAAAAAAAAAAAAAAAAAAAAAAAAAAAAAAAAAAAAAAAAAAAAAAAAAAAAAAAAAAAAAAAAAAAAAAAAAAAAAAAAAAAAAAAAAAAAAAAAAAAAAAAAAAAAAAAAAAAAAAAAAAAAAAAAAAAAAAAAAAAAAAAAAAAAAAAAAAAAAAAAAAAAAAAAAAAAAAAAAAAAAAAAAAAAAAAAAAAAAAAAAAAAAAAAAAAAAAAAAAAAAAAAAAAAAAAAAAAAAAAAAAAAAAAAAAAAAAAAAAAAAAAAAAAAAAAAAAAAAAAAAAAAAAAAAAAAAAAAAAAAAAAAAAAAAAAAAAAAAAAAAAAAAAAAAAAAAAAAAAAAAAAAAAAAAAAAAAAAAAAAAAAAAAAAAAAAAAAAAAAAAAAAAAAAAAAAAAAAAAAAAAAAAAAAAAAAAAAAAAAAAAAAAAAAAAAAAAAAAAAAAAAAAAAAAAAAAAAAAAAAAAAAAAAAAAAAAAAAAAAAAAAAAAAAAAAAAAAAAAAAAAAAAAAAAAAAAAAAAAAAAAAAAAAAAAAAAAAAAAAAAAAAAAAAAAAAAAAAAAAAAAAAAAAAAAAAAAAAAAAAAAAAAAAAAAAAAAAAAAAAAAAAAAAAAAAAAAAAAAAAAAAAAAAAAAAAAAAAAAAAAAAAAAAAAAAAAAAAAAAAAAAAAAAAAAAAAAAAAAAAAAAAAAAAAAAAAAAAAAAAAAAAAAAAAAAAAAAAAAAAAAAAAAAAAAAAAAAAAAAAAAAAAAAAAAAAAAAAAAAAAAAAAAAAAAAAAAAAAAAAAAAAAAAAAAAAAAAAAAAAAAAAAAAAAAAAAAAAAAAAAAAAAAAAAAAAAAAAAAAAAAAAAAAAAAAAAAAAAAAAAAAAAAAAAAAAAAAAAAAAAAAAAAAAAAAAAAAAAAAAAAAAAAAAAAAAAAAAAAAAAAAAAAAAAAAAAAAAAAAAAAAAAAAAAAAAAAAAAAAAAAAAAAAAAAAAAAAAAAAAAAAAAAAAAAAAAAAAAAAAAAAAAAAAAAAAAAAAAAAAAAAAAAAAAAAAAAAAAAAAAAAAAAAAAAAAAAAAAAAAAAAAAAAAAAAAAAAAAAAAAAAAAAAAAAAAAAAAAAAAAAAAAAAAAAAAAAAAAAAAAAAAAAAAAAAAAAAAAAAAAAAAAAAAAAAAAAAAAAAAAAAAAAAAAAAAAAAAAAAAAAAAAAAAAAAAAAAAAAAAAAAAAAAAAAAAAAAAAAAAAAAAAAAAAAAAAAAAAAAAAAAAAAAAAAAAAAAAAAAAAAAAAAAAAAAAAAAAAAAAAAAAAAAAAAAAAAAAAAAAAAAAAAAAAAAAAAAAAAAAAAAAAAAAAAAAAAAAAAAAAAAAAAAAAAAAAAAAAAAAAAAAAAAAAAAAAAAAAAAAAAAAAAAAAAAAAAAAAAAAAAAAAAAAAAAAAAAAAAAAAAAAAAAAAAAAAAAAAAAAAAAAAAAAAAAAAAAAAAAAAAAAAAAAAAAAAAAAAAAAAAAAAAAAAAAAAAAAAAAAAAAAAAAAAAAAAAAAAAAAAAAAAAAAAAAAAAAAAAAAAAAAAAAAAAAAAAAAAAAAAAAAAAAAAAAAAAAAAAAAAAAAAAAAAAAAAAAAAAAAAAAAAAAAAAAAAAAAAAAAAAAAAAAAAAAAAAAAAAAAAAAAAAAAAAAAAAAAAAAAAAAAAAAAAAAAAAAAAAAAAAAAAAAAAAAAAAAAAAAAAAAAAAAAAAAAAAAAAAAAAAAAAAAAAAAAAAAAAAAAAAAAAAAAAAAAAAAAAAAAAAAAAAAAAAAAAAAAAAAAAAAAAAAAAAAAAAAAAAAAAAAAAAAAAAAAAAAAAAAAAAAAAAAAAAAAAAAAAAAAAAAAAAAAAAAAAAAAAAAAAAAAAAAAAAAAAAAAAAAAAAAAAAAAAAAAAAAAAAAAAAAAAAAAAAAAAAAAAAAAAAAAAAAAAAAAAAAAAAAAAAAAAAAAAAAAAAAAAAAAAAAAAAAAAAAAAAAAAAAAAAAAAAAAAAAAAAAAAAAAAAAAAAAAAAAAAAAAAAAAAAAAAAAAAAAAAAAAAAAAAAAAAAAAAAAAAAAAAAAAAAAAAAAAAAAAAAAAAAAAAAAAAAAAAAAAAAAAAAAAAAAAAAAAAAAAAAAAAAAAAAAAAAAAAAAAAAAAAAAAAAAAAAAAAAAAAAAAAAAAAAAAAAAAAAAAAAAAAAAAAAAAAAAAAAAAAAAAAAAAAAAAAAAAAAAAAAAAAAAAAAAAAAAAAAAAAAAAAAAAAAAAAAAAAAAAAAAAAAAAAAAAAAAAAAAAAAAAAAAAAAAAAAAAAAAAAAAAAAAAAAAAAAAAAAAAAAAAAAAAAAAAAAAAAAAAAAAAAAAAAAAAAAAAAAAAAAAAAAAAAAAAAAAAAAAAAAAAAAAAAAAAAAAAAAAAAAAAAAAAAAAAAAAAAAAAAAAAAAAAAAAAAAAAAAAAAAAAAAAAAAAAAAAAAAAAAAAAAAAAAAAAAAAAAAAAAAAAAAAAAAAAAAAAAAAAAAAAAAAAAAAAAAAAAAAAAAAAAAAAAAAAAAAAAAAAAAAAAAAAAAAAAAAAAAAAAAAAAAAAAAAAAAAAAAAAAAAAAAAAAAAAAAAAAAAAAAAAAAAAAAAAAAAAAAAAAAAAAAAAAAAAAAAAAAAAAAAAAAAAAAAAAAAAAAAAAAAAAAAAAAAAAAAAAAAAAAAAAAAAAAAAAAAAAAAAAAAAAAAAAAAAAAAAAAAAAAAAAAAAAAAAAAAAAAAAAAAAAAAAAAAAAAAAAAAAAAAAAAAAAAAAAAAAAAAAAAAAAAAAAAAAAAAAAAAAAAAAAAAAAAAAAAAAAAAAAAAAAAAAAAAAAAAAAAAAAAAAAAAAAAAAAAAAAAAAAAAAAAAAAAAAAAAAAAAAAAAAAAAAAAAAAAAAAAAAAAAAAAAAAAAAAAAAAAAAAAAAAAAAAAAAAAAAAAAAAAAAAAAAAAAAAAAAAAAAAAAAAAAAAAAAAAAAAAAAAAAAAAAAAAAAAAAAAAAAAAAAAAAAAAAAAAAAAAAAAAAAAAAAAAAAAAAAAAAAAAAAAAAAAAAAAAAAAAAAAAAAAAAAAAAAAAAAAAAAAAAAAAAAAAAAAAAAAAAAAAAAAAAAAAAAAAAAAAAAAAAAAAAAAAAAAAAAAAAAAAAAAAAAAAAAAAAAAAAAAAAAAAAAAAAAAAAAAAAAAAAAAAAAAAAAAAAAAAAAAAAAAAAAAAAAAAAAAAAAAAAAAAAAAAAAAAAAAAAAAAAAAAAAAAAAAAAAAAAAAAAAAAAAAAAAAAAAAAAAAAAAAAAAAAAAAAAAAAAAAAAAAAAAAAAAAAAAAAAAAAAAAAAAAAAAAAAAAAAAAAAAAAAAAAAAAAAAAAAAAAAAAAAAAAAAAAAAAAAAAAAAAAAAAAAAAAAAAAAAAAAAAAAAAAAAAAAAAAAAAAAAAAAAAAAAAAAAAAAAAAAAAAAAAAAAAAAAAAAAAAAAAAAAAAAAAAAAAAAAAAAAAAAAAAAAAAAAAAAAAAAAAAAAAAAAAAAAAAAAAAAAAAAAAAAAAAAAAAAAAAAAAAAAAAAAAAAAAAAAAAAAAAAAAAAAAAAAAAAAAAAAAAAAAAAAAAAAAAAAAAAAAAAAAAAAAAAAAAAAAAAAAAAAAAAAAAAAAAAAAAAAAAAAAAAAAAAAAAAAAAAAAAAAAAAAAAAAAAAAAAAAAAAAAAAAAAAAAAAAAAAAAAAAAAAAAAAAAAAAAAAAAAAAAAAAAAAAAAAAAAAAAAAAAAAAAAAAAAAAAAAAAAAAAAAAAAAAAAAAAAAAAAAAAAAAAAAAAAAAAAAAAAAAAAAAAAAAAAAAAAAAAAAAAAAAAAAAAAAAAAAAAAAAAAAAAAAAAAAAAAAAAAAAAAAAAAAAAAAAAAAAAAAAAAAAAAAAAAAAAAAAAAAAAAAAAAAAAAAAAAAAAAAAAAAAAAAAAAAAAAAAAAAAAAAAAAAAAAAAAAAAAAAAAAAAAAAAAAAAAAAAAAAAAAAAAAAAAAAAAAAAAAAAAAAAAAAAAAAAAAAAAAAAAAAAAAAAAAAAAAAAAAAAAAAAAAAAAAAAAAAAAAAAAAAAAAAAAAAAAAAAAAAAAAAAAAAAAAAAAAAAAAAAAAAAAAAAAAAAAAAAAAAAAAAAAAAAAAAAAAAAAAAAAAAAAAAAAAAAAAAAAAAAAAAAAAAAAAAAAAAAAAAAAAAAAAAAAAAAAAAAAAAAAAAAAAAAAAAAAAAAAAAAAAPZYQAA6CO+wMp2I2VIfAAHFS+ShDzKB51Om0bQagC04fnvJ4Sr5sT+EEslBnf37dOQ0YaXuy+Zbc2m9q3JfQSrFjh0=</c2pa:manifest></metadata><g id="uuid-ae612369-8d9a-4238-b221-1cbc34a08f17"><path d="M109.56,153.45h16.5l-20.6,63.82h-16.41l-12.95-39.02-13.04,39.02h-16.41l-20.7-63.82h16.59l13.49,44.49,12.95-44.49h14.13l12.95,44.49,13.49-44.49Z" style="fill:#fff;"></path><path d="M175.28,217.27l-14.95-19.69h-8.57v19.69h-15.68v-63.82h27.72c17.69,0,28.35,8.21,28.35,22.15,0,9.94-5.38,16.87-14.86,20.06l16.23,21.61h-18.23ZM151.76,166.48v18.51h11.58c8.3,0,13.13-2.55,13.13-9.12s-4.83-9.39-13.13-9.39h-11.58Z" style="fill:#fff;"></path><path d="M270.27,217.27v-63.82h14.5l31.82,38.93v-38.93h15.68v63.82h-14.04l-32.27-39.57v39.57h-15.68Z" style="fill:#fff;"></path><polygon points="219.77 190.74 252.13 190.74 252.13 178.43 219.77 178.43 219.77 166.39 253.95 166.39 253.95 163.99 243.79 153.45 204.36 153.45 204.36 217.27 257.24 217.27 257.24 204.32 219.77 204.32 219.77 190.74" style="fill:#fff;"></polygon><path d="M208.61,48.55c-23.4-6.08-31.68,12.82-31.68,12.82l-23.99,20.14c-4.68-6.9-5.63-36.54-8.11-13.78-3.63.89-1.27,9.59-.79,16.2.12,1.69.25,3.29.38,4.74l-11.66,9.79c5.84,2.26,16.48,1.78,18.43,1.67h0s9.57-.33,17.95-3.08c3.93-1.29,8.54-3.17,12.04-5.9,3.22-2.51,5.44-5.59,6.27-7.78,1.35-3.57,1.27-6.58.17-9.48-.83-2.18-2-4.06-3.05-4.71,0,0,3.26,1.39,4.99,6.24,1.05,2.93,1.57,8.1-2.8,13.94-3.62,4.85-9.66,8.67-17.45,10.85-6.65,1.87-13.27,2.6-15.36,2.8,2.06,1.83,5.71,4.26,12.07,6.5,16.03,5.67,30.05-.35,37.55-9.18,8.94-10.53,9.99-21.12,9.91-26.6-.08-5.68-1.26-15.4.08-19.99,1.13-3.88,5.25-7.18,5.25-7.18l-10.19,1.98ZM201.7,55.35c.07.41.06.85-.07,1.28-.45,1.48-2.04,2.32-3.54,1.87-.59-.18-1.08-.53-1.43-.98-.19.09-.38.19-.56.28-4.93,2.55-5.91,2.5-5.91,2.5,0,0,2.27-2.24,5.89-4.3-.02-.32,0-.66.11-.99.45-1.48,2.04-2.32,3.54-1.87.45.13.84.38,1.15.68,1.17-.4,2.4-.72,3.68-.92,5.72-.91,1.74.59-2.86,2.45Z" style="fill:#b6935a; fill-rule:evenodd;"></path><path d="M182.05,0l-34.39,27.4v-8.78h-18.43v23.47l-19.79,15.77v72.58h122.74l21.97,22.79V57.86L182.05,0ZM245.69,132.32l-9.91-10.33h-117.89v-60.25L181.93,10.92l63.76,50.7v70.7Z" style="fill:#b6935a;"></path><path d="M68.68,247.43c0,2.96-2.5,4.81-6.55,4.81h-9.07v-18.2h8.76c3.74,0,6.06,1.72,6.06,4.58,0,2.03-1.17,3.67-3.04,4.26,2.34.52,3.85,2.26,3.85,4.55ZM55.63,236.35v5.54h5.77c2.68,0,3.93-.99,3.93-2.78s-1.35-2.76-4.03-2.76h-5.67ZM61.74,249.93c2.99,0,4.37-1.01,4.37-2.83,0-1.98-1.51-2.89-4.42-2.89h-6.06v5.72h6.11Z" style="fill:#b6935a;"></path><path d="M78.25,244.7v-10.66h2.6v10.58c0,3.56,1.98,5.56,5.23,5.56s5.25-2,5.25-5.56v-10.58h2.55v10.66c0,4.84-2.99,7.8-7.8,7.8s-7.83-2.96-7.83-7.8Z" style="fill:#b6935a;"></path><path d="M105.18,252.24v-18.2h2.57v18.2h-2.57Z" style="fill:#b6935a;"></path><path d="M120.32,252.24v-18.2h2.55v15.89h10.4v2.31h-12.95Z" style="fill:#b6935a;"></path><path d="M143.22,252.24v-18.2h7.38c6.03,0,9.91,3.56,9.91,9.07s-3.87,9.13-9.91,9.13h-7.38ZM145.8,249.93h4.71c4.47,0,7.28-2.55,7.28-6.79s-2.81-6.81-7.31-6.81h-4.68v13.6Z" style="fill:#b6935a;"></path><path d="M173.5,249.93h11.7v2.31h-14.22v-18.2h13.96v2.29h-11.44v5.41h10.17v2.31h-10.17v5.88Z" style="fill:#b6935a;"></path><path d="M207.66,252.24l-4.86-6.4h-4.32v6.4h-2.57v-18.2h7.23c4.81,0,7.59,2.13,7.59,5.9,0,2.99-1.74,4.94-4.86,5.64l5.07,6.66h-3.28ZM198.48,236.33v7.23h4.58c3.28,0,5.1-1.04,5.1-3.56s-1.82-3.67-5.07-3.67h-4.6Z" style="fill:#b6935a;"></path><path d="M219.98,250.86l.26-2.37c2.08,1.12,4.94,1.64,7.1,1.64,2.55,0,4.78-.55,4.78-2.78s-1.77-2.65-4.91-3.3c-4.37-.83-6.71-2.13-6.71-5.1,0-3.48,3.28-5.17,7.12-5.17,2.13,0,4.21.42,6.16,1.35l-.47,2.39c-2.03-.96-3.82-1.4-5.69-1.4-2.44,0-4.39.6-4.39,2.73,0,1.69,1.43,2.21,4.65,2.91,4.42.86,6.99,2.21,6.99,5.51,0,3.54-3.56,5.23-7.51,5.23-2.83,0-5.51-.55-7.38-1.64Z" style="fill:#b6935a;"></path><path d="M259.89,252.24v-18.2h2.55v15.89h10.4v2.31h-12.95Z" style="fill:#b6935a;"></path><path d="M292.52,234.04v2.29h-6.29v15.91h-2.6v-15.91h-6.29v-2.29h15.18Z" style="fill:#b6935a;"></path><path d="M300.72,252.24v-18.2h7.38c6.03,0,9.91,3.56,9.91,9.07s-3.87,9.13-9.91,9.13h-7.38ZM303.3,249.93h4.71c4.47,0,7.28-2.55,7.28-6.79s-2.81-6.81-7.31-6.81h-4.68v13.6Z" style="fill:#b6935a;"></path><polygon points="0 247.25 42.06 247.25 42.06 245 2.25 245 2.25 124.31 98.44 124.31 98.44 122.06 0 122.06 0 247.25" style="fill:#b6935a;"></polygon><polygon points="6 241.25 42.06 241.25 42.06 239 8.25 239 8.25 130.41 98.44 130.41 98.44 128.16 6 128.16 6 241.25" style="fill:#b6935a;"></polygon><path d="M265.15,122.06v2.25h96.71v120.69h-32.91c-.06.77-.16,1.52-.29,2.25h35.45v-125.19h-98.96Z" style="fill:#b6935a;"></path><path d="M355.86,239h-27.2c.13.73.23,1.48.29,2.25h29.16v-113.09h-92.96v2.25h90.71v108.59Z" style="fill:#b6935a;"></path></g></svg>